HIERARCHY
ROOT Spine
{
    OFFSET 0.0 0.0 -0.0
    CHANNELS 6 Xposition Yposition Zposition Zrotation Xrotation Yrotation
    JOINT ShoulderCenter
    {
        OFFSET 0.0 32.78681945800781 0.0
        CHANNELS 3 Zrotation Xrotation Yrotation
        JOINT LeftShoulder
        {
            OFFSET 19.048067092895508 0.0 0.0
            CHANNELS 3 Zrotation Xrotation Yrotation
            JOINT LeftElbow
            {
                OFFSET 28.856948852539062 0.0 0.0
                CHANNELS 3 Zrotation Xrotation Yrotation
                JOINT LeftHand
                {
                    OFFSET 31.277847290039062 0.0 0.0
                    CHANNELS 3 Zrotation Xrotation Yrotation
                    End Site
                    {
                        OFFSET 12.511139869689941 0.0 0.0
                    }
                }
            }
        }
        JOINT RightShoulder
        {
            OFFSET -19.048067092895508 0.0 0.0
            CHANNELS 3 Zrotation Xrotation Yrotation
            JOINT RightElbow
            {
                OFFSET -28.856948852539062 0.0 0.0
                CHANNELS 3 Zrotation Xrotation Yrotation
                JOINT RightHand
                {
                    OFFSET -31.277847290039062 0.0 0.0
                    CHANNELS 3 Zrotation Xrotation Yrotation
                    End Site
                    {
                        OFFSET -12.511139869689941 0.0 0.0
                    }
                }
            }
        }
        End Site
        {
            OFFSET 0.0 13.114727973937988 0.0
        }
    }
    JOINT LeftHip
    {
        OFFSET 15.793534116434376 -15.793534116434376 0.0
        CHANNELS 3 Zrotation Xrotation Yrotation
        JOINT LeftKnee
        {
            OFFSET 0.0 -41.18320846557617 0.0
            CHANNELS 3 Zrotation Xrotation Yrotation
            JOINT LeftFoot
            {
                OFFSET 0.0 -48.454429626464844 0.0
                CHANNELS 3 Zrotation Xrotation Yrotation
                End Site
                {
                    OFFSET 0.0 0.0 19.381771087646484
                }
            }
        }
    }
    JOINT RightHip
    {
        OFFSET -15.793534116434376 -15.793534116434376 0.0
        CHANNELS 3 Zrotation Xrotation Yrotation
        JOINT RightKnee
        {
            OFFSET 0.0 -41.18320846557617 0.0
            CHANNELS 3 Zrotation Xrotation Yrotation
            JOINT RightFoot
            {
                OFFSET 0.0 -48.454429626464844 0.0
                CHANNELS 3 Zrotation Xrotation Yrotation
                End Site
                {
                    OFFSET 0.0 0.0 19.381771087646484
                }
            }
        }
    }
}
MOTION
Frames: 10
Frame Time: 0.03333333333333333
-20.299999237060547 67.29999542236328 -47.60000228881836 -16.9861393544409 -10.11288894578556 104.44377714021569 -5.244462406052437e-07 -1.4845931976090401e-06 3.8404484344377092 112.6725629785161 47.348698801426046 177.34392081064075 -3.6095855258868287e-06 3.6660135042645915e-06 26.727324222845784 -6.361109362927035e-15 0.0 0.0 -89.99603417658581 45.01193221621545 157.01888797802485 6.978491884469688e-07 -3.11142009648484e-06 -14.106695077365664 7.951386703658793e-15 4.413906298050159e-31 6.361109362927035e-15 13.981735603817189 -62.059830840535426 79.80529512707858 20.094493513347334 5.988796955027794 -31.351475367536956 1.5902773407317584e-15 -1.5902773407317584e-15 3.975693351829396e-15 2.4770890182795076 -44.96997076261622 -19.14880997889598 -8.132865764977272 10.384700934360446 30.09135041538607 1.1927080055488188e-15 -4.138037154422024e-33 -3.975693351829396e-16
-20.399999618530273 67.29999542236328 -47.29999923706055 -16.817480718453343 -10.80390002567912 104.00238872437252 -2.830638198899658e-06 -2.3153619820912007e-06 6.13507283450676 115.20189757032574 41.17510459683045 177.93339932030926 -1.9182287685052605e-06 4.55021821720652e-06 26.390047131743792 6.3611093629270335e-15 0.0 0.0 -90.7180679342408 45.44290133928317 158.42992754442224 -3.4173652260278178e-06 -3.4148366421972596e-06 -14.303876449066735 3.531125038440127e-31 -6.361109362927033e-15 6.361109362927033e-15 14.044216253363054 -63.926490502032564 79.92913155862989 17.522854189045425 7.0807752912116415 -24.40092511731068 3.975693351829396e-16 0.0 0.0 3.504696373679598 -41.18986086655284 -13.321659882101295 -7.77944776806489 10.775404258633458 31.385201506791905 6.957463365701443e-16 -1.987846675914698e-16 1.0436195048552165e-15
-20.5 67.4000015258789 -47.099998474121094 -17.375071998812604 -10.636012952219426 104.0570932596724 -1.6114758659901188e-06 -3.0074220556357113e-07 6.725568728662476 110.37625984266228 47.381175910074205 -178.72861147962598 9.887727069192538e-06 9.906841816968076e-07 26.13480006174813 0.0 3.1805546814635168e-15 0.0 -94.39883894770549 41.934658575953385 161.3131941518652 -7.976762192402986e-07 8.601900953224373e-07 -15.080795086004162 0.0 0.0 6.3611093629270335e-15 13.534284888737998 -65.4423614548379 80.71066154283041 14.922337472475947 8.66270792912917 -22.646458429156525 3.975693351829396e-15 -1.3793457181406746e-32 -3.975693351829396e-16 2.8893785058147987 -37.69438094045011 -6.6236348359641 -6.6925499448875865 11.78635159921984 32.72387356764602 -5.963540027744094e-16 -3.975693351829396e-16 2.2363275104040355e-16
-20.600000381469727 67.5999984741211 -46.70000076293945 -17.8188879499804 -11.700383522402337 105.27035868759155 9.708752830382606e-07 1.0960614060272625e-06 6.7680494417112955 115.19991709061088 38.66672916822678 179.2467530085774 1.8852671768661171e-06 5.194173927771086e-06 27.35943671568214 -6.3611093629270335e-15 3.975693351829396e-15 6.3611093629270335e-15 -92.35569834810978 44.78532309846498 160.33283464628306 -1.9871209116693264e-06 -2.2224049999513507e-06 -15.240451372655118 0.0 6.3611093629270335e-15 0.0 11.95872924821334 -66.40293207697984 78.39113061160997 11.997853319173368 10.530122067116116 -22.22310578970358 -3.975693351829397e-16 -2.758691436281349e-33 7.951386703658794e-16 3.178845730244406 -35.236860746485576 -1.6073651052547744 -5.955857445575491 13.650343988667478 35.58164578385866 0.0 0.0 2.7332891793827097e-15
-20.80000114440918 68.0999984741211 -46.20000076293945 -18.042137873424064 -12.90868602504278 105.05525061033974 -5.505458923929675e-08 -4.96202343986931e-07 8.91280940204853 115.86640154095315 35.27771840525918 -179.4450907662235 -1.802567032265755e-06 6.380663904354405e-07 27.557530304848896 0.0 0.0 0.0 -88.2410153361856 50.391591437980225 158.2976071508258 -2.0462694177044674e-07 -1.8632209954982845e-06 -15.57964775746304 0.0 -6.361109362927033e-15 0.0 12.46700758653819 -66.11959209378273 77.4997753515726 11.109846901636027 9.79582532674635 -20.140675183000486 4.373262687012335e-15 1.517280289954742e-32 3.975693351829396e-16 4.9969332566293385 -32.81258621442193 4.057925011359464 -4.938061573443952 15.350923395764736 36.12163374577684 0.0 0.0 2.7332891793827095e-16
-20.900001525878906 68.30000305175781 -45.79999923706055 -19.054648730466578 -13.968219788135706 104.91383488086637 2.4184433807181897e-06 -9.564125806696695e-07 10.196265876774907 114.73360408474254 35.63987751111595 -177.32840266245273 1.711407253883723e-06 8.326129751146134e-07 27.818224053707407 0.0 0.0 6.3611093629270335e-15 -90.71149706352205 46.66094747280233 159.94562536871734 4.189531957740496e-06 3.1294295266837566e-06 -15.84643788575642 6.3611093629270335e-15 6.3611093629270335e-15 -6.3611093629270335e-15 13.669774887148929 -65.82424892505861 79.28330236669329 9.94469993699415 10.30601892128144 -20.614249919487598 -1.3914926731402884e-15 -1.5902773407317582e-15 -3.9756933518293955e-16 6.074558310432636 -31.794134849902548 8.210649790385782 -3.0710309859442373 17.608892225274275 35.45556871812906 -3.975693351829396e-16 -3.620782510119271e-33 1.0436195048552165e-15
-21.100000381469727 68.69999694824219 -45.5 -19.340732408299523 -14.872910834768206 105.87122451365273 5.740270028264183e-07 1.9634202649563577e-06 9.795294284366179 115.17463496530542 34.78325766818862 -176.61609784786535 -2.0976826027650144e-06 5.681405374039103e-07 27.70676395959476 0.0 0.0 0.0 -89.95880477536008 46.79276371556612 159.61104387407968 3.153404924001221e-06 7.5983137211198686e-06 -15.814725342119099 -6.3611093629270335e-15 -6.3611093629270335e-15 6.3611093629270335e-15 10.049122875039382 -64.03675913775628 73.34878629012344 8.933043063312102 8.75822869234983 -17.659926212487754 1.590277340731758e-15 2.2069531490250793e-32 1.590277340731758e-15 6.506309319231286 -30.871586076598966 8.195258621421237 -2.0233643897565754 19.807288691983853 37.18519978901857 -7.951386703658792e-16 0.0 0.0
-21.100000381469727 69.19999694824219 -45.20000076293945 -19.40019868221637 -15.749851223867745 106.9571066587502 6.110617553541513e-07 5.866057589284986e-07 9.265440371285717 110.40941676182233 42.09630124679617 -175.60007216581891 2.92697254238102e-07 -8.043793587290336e-06 29.58866924494284 6.3611093629270335e-15 -3.1805546814635168e-15 1.7655625192200634e-31 -88.24302068052333 48.14738536922354 159.2163391834407 8.605339657634815e-07 3.922220802245116e-06 -16.2759056072242 6.361109362927032e-15 6.361109362927032e-15 -3.531125038440127e-31 8.252540163231387 -61.259222210728495 67.46138750820327 8.303415855535613 8.2131200372136 -17.839352759565102 -3.975693351829396e-16 1.6552148617688095e-32 -4.770832022195275e-15 6.666895069532035 -29.680107018658344 10.145082842892707 0.35515583065307327 21.894097547744334 37.490337007866515 0.0 0.0 -9.939233379573492e-16
-21.100000381469727 69.4000015258789 -44.900001525878906 -19.460015360086857 -16.458923663993303 107.11439555837217 -2.2141961011501625e-06 7.181070716120463e-07 9.411444910871328 111.44049962473025 41.65352872949884 -176.00319948942987 5.399287226945316e-06 2.081499235002847e-06 29.613442856463447 6.3611093629270335e-15 0.0 0.0 -89.34546231635045 46.09306058386336 160.875593103465 1.0508644164725235e-06 -5.536143865786261e-09 -17.256285251771185 -3.1805546814635168e-15 1.7655625192200634e-31 -6.3611093629270335e-15 9.416207227755947 -58.5882999722244 67.56630626746241 9.944129199475464 7.342777218757518 -19.179920516505717 -1.5902773407317584e-15 3.310429723537619e-32 -2.3854160110976376e-15 7.6581924692121035 -28.922401141344483 10.589581236919113 2.1352843225102522 23.998211990529658 36.900206474369675 -1.5902773407317584e-15 -5.241513728934563e-32 3.776908684237926e-15
-21.100000381469727 69.30000305175781 -44.60000228881836 -20.323139595697192 -17.028150962385137 108.04270518524602 6.913234675045344e-08 -2.728375402273099e-06 8.689145581066025 105.00748716730824 47.767750887748974 -166.93474571151356 -1.2476879885055592e-06 -3.3545038731495477e-06 25.74139267200533 0.0 -3.1805546814635168e-15 0.0 -88.13600194435243 46.889155141376115 159.58112039348865 4.996070787063146e-06 2.5355153328353704e-06 -17.275358772239024 -3.180554681463516e-15 -6.361109362927032e-15 -1.7655625192200634e-31 9.667331953193381 -56.24416207607963 67.06349192860564 10.226272967089733 8.022144329876449 -24.06758094743654 0.0 0.0 4.373262687012335e-15 7.88331462252209 -29.18056743753046 10.633315500926807 3.3905697236808727 26.110647811266702 37.24274064813623 7.951386703658792e-16 -5.517382872562698e-33 -7.951386703658792e-16
